<?xml version="1.0" encoding="utf-8"?>
<?xml-stylesheet type="text/xsl" href="rss1.xsl"?>
<rss version="2.0" xmlns:atom="http://www.w3.org/2005/Atom" xmlns:content="http://purl.org/rss/1.0/modules/content/" xmlns:dc="http://purl.org/dc/elements/1.1/" xmlns:media="http://search.yahoo.com/mrss/">
<channel>
 <title>Getty</title>
 <link>http://www.gettyimg.com/</link>
 <atom:link href="http://www.gettyimg.com/" rel="self" type="application/rss+xml" />

 
                <item>
                <title><![CDATA[【Singles (lossless)】FLAC - RIIZE - Impossible (2024) [Genie Music Hi-Res 24bit / 96kHz]]]></title>
                <link><![CDATA[https://sharemania.us/threads/riize-impossible-2024-genie-music-hi-res-24bit-96khz.242892/]]></link>
                <description><![CDATA[<article>
<blockquote class="messageText SelectQuoteContainer ugc baseHtml">
<div style="text-align: center"><img src="https://a5.mzstatic.com/us/r1000/0/Music211/v4/26/dd/35/26dd3596-341b-c40c-8a3d-7a2ab9e166aa/888735947346.jpg" class="bbCodeImage LbImage" alt="[​IMG]" data-url="https://a5.mzstatic.com/us/r1000/0/Music211/v4/26/dd/35/26dd3596-341b-c40c-8a3d-7a2ab9e166aa/888735947346.jpg" style=""> <br>
<div class="bbCodeBlock bbCodeVfcHH HiddenContent">
<div class="attribution type">Hidden Content:</div>
<blockquote>You must either reply or click 'Like' to see the hidden information contained here.</blockquote>
</div></div>
<div class="messageTextEndMarker">&nbsp;</div>
</blockquote>
</article>]]></description>
                <author><![CDATA[2NE1]]></author>
                </item>

                
                <item>
                <title><![CDATA[【Apple Music】WEB-RiP - Olivia Rodrigo - Can’t Catch Me Now [Apple HD Music Video]]]></title>
                <link><![CDATA[https://sharemania.us/threads/olivia-rodrigo-can%E2%80%99t-catch-me-now-apple-hd-music-video.242891/]]></link>
                <description><![CDATA[<article>
<blockquote class="messageText SelectQuoteContainer ugc baseHtml">
<span style="font-size: 22px"><b>Olivia Rodrigo - Can’t Catch Me Now [Apple HD Music Video]</b></span><br>
<br>
<img src="https://imgur.com/OHcsFqa.jpg" class="bbCodeImage LbImage" alt="[​IMG]" data-url="https://imgur.com/OHcsFqa.jpg" style=""><br>
<br>
<div class="bbCodeBlock bbCodeCode">
<div class="type">Code:</div>
<pre>General
Format                         : MPEG-4
Codec ID                       : M4V  (isom/iso4/M4V /mp42)
File size                      : 272 MiB
Duration                       : 3 min 36 s
Overall bit rate mode          : Variable
Overall bit rate               : 10.5 Mb/s
Movie name                     : Can’t Catch Me Now (from The Hunger Games: The Ballad of Songbirds &amp; Snakes)
Performer                      : Olivia Rodrigo
Genre                          : Pop
ContentType                    : Music Video
Recorded date                  : UTC 2023-11-13 08:00:00
Encoded date                   : UTC 2024-04-09 05:30:27
Tagged date                    : UTC 2024-04-09 05:30:27
Copyright                      : ℗ 2023 Olivia Rodrigo, under exclusive license to Geffen Records
Cover                          : Yes
Rating                         : None
GenreID                        : 1614
AppleStoreCountry              : United Kingdom
AlbumTitleID                   : 979458609
AppleStoreCatalogID            : 1716405186

Video
ID                             : 2
Format                         : AVC
Format/Info                    : Advanced Video Codec
Format profile                 : High@L4
Format settings                : CABAC / 4 Ref Frames
Format settings, CABAC         : Yes
Format settings, Reference fra : 4 frames
Format settings, GOP           : M=2, N=95
Codec ID                       : avc1
Codec ID/Info                  : Advanced Video Coding
Duration                       : 3 min 36 s
Duration_FirstFrame            : 42 ms
Bit rate                       : 10.3 Mb/s
Maximum bit rate               : 25.6 Mb/s
Width                          : 1 920 pixels
Height                         : 1 080 pixels
Display aspect ratio           : 16:9
Frame rate mode                : Constant
Frame rate                     : 23.976 (24000/1001) FPS
Color space                    : YUV
Chroma subsampling             : 4:2:0
Bit depth                      : 8 bits
Scan type                      : Progressive
Bits/(Pixel*Frame)             : 0.206
Stream size                    : 265 MiB (97%)
Title                          : Core Media Video
Language                       : English
Encoded date                   : UTC 2024-02-25 12:21:15
Tagged date                    : UTC 2024-04-09 05:30:31
Color range                    : Limited
Color primaries                : BT.709
Transfer characteristics       : BT.709
Matrix coefficients            : BT.709
Codec configuration box        : avcC

Audio
ID                             : 1
Format                         : AAC LC
Format/Info                    : Advanced Audio Codec Low Complexity
Codec ID                       : mp4a-40-2
Duration                       : 3 min 36 s
Duration_LastFrame             : -2 ms
Bit rate mode                  : Variable
Bit rate                       : 265 kb/s
Maximum bit rate               : 348 kb/s
Channel(s)                     : 2 channels
Channel layout                 : L R
Sampling rate                  : 48.0 kHz
Frame rate                     : 46.875 FPS (1024 SPF)
Compression mode               : Lossy
Stream size                    : 6.92 MiB (3%)
Title                          : Core Media Audio
Encoded date                   : UTC 2024-02-25 12:21:10
Tagged date                    : UTC 2024-04-09 05:30:31

Text
ID                             : 3
Format                         : EIA-608
Codec ID                       : c608
Duration                       : 3 min 35 s
Bit rate mode                  : Variable
Bit rate                       : 162 b/s
Maximum bit rate               : 1 312 b/s
Frame rate                     : 0.301 FPS
Stream size                    : 4.27 KiB (0%)
Title                          : Core Media Closed Caption
Language                       : English
Forced                         : No
Encoded date                   : UTC 2024-02-25 12:21:15
Tagged date                    : UTC 2024-04-09 05:30:31
</pre>
</div>
<div class="bbCodeBlock bbCodeVfcHH HiddenContent">
<div class="attribution type">Hidden Content:</div>
<blockquote>You must reply before you can see the hidden data contained here.</blockquote>
</div>
<div class="messageTextEndMarker">&nbsp;</div>
</blockquote>
</article>]]></description>
                <author><![CDATA[Mu$iC @$YLUM]]></author>
                </item>

                </channel></rss>